<svg xmlns="http://www.w3.org/2000/svg" xmlns:xlink="http://www.w3.org/1999/xlink" width="400" zoomAndPan="magnify" viewBox="0 0 300 225" height="300" preserveAspectRatio="xMidYMid meet" version="1.0"><defs><clipPath id="690f075dfe"><path d="M 131 25 L 134 25 L 134 53.257812 L 131 53.257812 Z M 131 25 " clip-rule="nonzero"/></clipPath><clipPath id="379dfd5b87"><path d="M 122.074219 6.007812 L 143.824219 6.007812 L 143.824219 28 L 122.074219 28 Z M 122.074219 6.007812 " clip-rule="nonzero"/></clipPath></defs><g clip-path="url(#690f075dfe)"><path fill="#85a389" d="M 132.949219 53.257812 C 132.675781 53.257812 132.441406 53.164062 132.25 52.96875 C 132.054688 52.777344 131.960938 52.546875 131.960938 52.273438 L 131.960938 26.679688 C 131.960938 26.410156 132.054688 26.175781 132.25 25.984375 C 132.441406 25.792969 132.675781 25.695312 132.949219 25.695312 C 133.21875 25.695312 133.453125 25.792969 133.644531 25.984375 C 133.839844 26.175781 133.9375 26.410156 133.9375 26.679688 L 133.9375 52.273438 C 133.9375 52.546875 133.839844 52.777344 133.644531 52.96875 C 133.453125 53.164062 133.21875 53.257812 132.949219 53.257812 Z M 132.949219 53.257812 " fill-opacity="1" fill-rule="nonzero"/></g><g clip-path="url(#379dfd5b87)"><path fill="#85a389" d="M 143.816406 16.835938 C 143.816406 17.546875 143.746094 18.25 143.605469 18.949219 C 143.464844 19.648438 143.261719 20.324219 142.988281 20.980469 C 142.714844 21.636719 142.378906 22.261719 141.984375 22.851562 C 141.585938 23.445312 141.136719 23.992188 140.632812 24.492188 C 140.128906 24.996094 139.578125 25.445312 138.984375 25.839844 C 138.390625 26.234375 137.765625 26.570312 137.105469 26.839844 C 136.445312 27.113281 135.769531 27.316406 135.066406 27.457031 C 134.367188 27.59375 133.660156 27.664062 132.949219 27.664062 C 132.234375 27.664062 131.527344 27.59375 130.828125 27.457031 C 130.128906 27.316406 129.449219 27.113281 128.789062 26.839844 C 128.128906 26.570312 127.503906 26.234375 126.910156 25.839844 C 126.316406 25.445312 125.769531 24.996094 125.265625 24.492188 C 124.757812 23.992188 124.308594 23.445312 123.914062 22.851562 C 123.515625 22.261719 123.179688 21.636719 122.910156 20.980469 C 122.636719 20.324219 122.429688 19.648438 122.289062 18.949219 C 122.152344 18.25 122.082031 17.546875 122.082031 16.835938 C 122.082031 16.125 122.152344 15.421875 122.289062 14.722656 C 122.429688 14.027344 122.636719 13.351562 122.910156 12.691406 C 123.179688 12.035156 123.515625 11.410156 123.914062 10.820312 C 124.308594 10.230469 124.757812 9.683594 125.265625 9.179688 C 125.769531 8.675781 126.316406 8.226562 126.910156 7.832031 C 127.503906 7.4375 128.128906 7.105469 128.789062 6.832031 C 129.449219 6.5625 130.128906 6.355469 130.828125 6.214844 C 131.527344 6.078125 132.234375 6.007812 132.949219 6.007812 C 133.660156 6.007812 134.367188 6.078125 135.066406 6.214844 C 135.769531 6.355469 136.445312 6.5625 137.105469 6.832031 C 137.765625 7.105469 138.390625 7.4375 138.984375 7.832031 C 139.578125 8.226562 140.128906 8.675781 140.632812 9.179688 C 141.136719 9.683594 141.585938 10.230469 141.984375 10.820312 C 142.378906 11.410156 142.714844 12.035156 142.988281 12.691406 C 143.261719 13.351562 143.464844 14.027344 143.605469 14.722656 C 143.746094 15.421875 143.816406 16.125 143.816406 16.835938 Z M 143.816406 16.835938 " fill-opacity="1" fill-rule="nonzero"/></g><path fill="#ffffff" d="M 127.019531 17.820312 C 126.746094 17.820312 126.515625 17.726562 126.320312 17.53125 C 126.128906 17.339844 126.03125 17.109375 126.03125 16.835938 C 126.03125 16.382812 126.078125 15.9375 126.164062 15.492188 C 126.253906 15.046875 126.386719 14.617188 126.558594 14.199219 C 126.734375 13.78125 126.945312 13.382812 127.199219 13.007812 C 127.449219 12.632812 127.738281 12.285156 128.058594 11.964844 C 128.378906 11.644531 128.730469 11.359375 129.105469 11.105469 C 129.484375 10.855469 129.882812 10.644531 130.300781 10.46875 C 130.722656 10.296875 131.152344 10.167969 131.597656 10.078125 C 132.042969 9.988281 132.492188 9.945312 132.949219 9.945312 C 133.21875 9.945312 133.453125 10.042969 133.644531 10.234375 C 133.839844 10.425781 133.9375 10.660156 133.9375 10.929688 C 133.9375 11.203125 133.839844 11.433594 133.644531 11.625 C 133.453125 11.820312 133.21875 11.914062 132.949219 11.914062 C 132.625 11.914062 132.300781 11.945312 131.984375 12.007812 C 131.667969 12.074219 131.355469 12.164062 131.058594 12.289062 C 130.757812 12.414062 130.472656 12.566406 130.203125 12.746094 C 129.933594 12.925781 129.683594 13.128906 129.457031 13.355469 C 129.226562 13.585938 129.019531 13.832031 128.839844 14.101562 C 128.660156 14.371094 128.507812 14.65625 128.382812 14.953125 C 128.261719 15.25 128.167969 15.558594 128.101562 15.875 C 128.039062 16.195312 128.007812 16.511719 128.007812 16.835938 C 128.007812 17.109375 127.910156 17.339844 127.71875 17.53125 C 127.527344 17.726562 127.292969 17.820312 127.019531 17.820312 Z M 127.019531 17.820312 " fill-opacity="1" fill-rule="nonzero"/><path fill="#85a389" d="M 217.03125 118.015625 C 218.238281 125.714844 218.480469 133.773438 217.515625 141.898438 C 211.945312 189.480469 168.910156 223.488281 121.398438 217.910156 C 83.023438 213.367188 53.488281 184.390625 46.464844 148.324219 C 46.527344 148.261719 142.28125 165.78125 217.03125 118.015625 M 17.351562 127.652344 C -9.097656 112.316406 13.296875 93.34375 38.71875 92.132812 C 32.183594 94.253906 3.070312 113.953125 44.589844 125.714844 C 44.773438 125.773438 45.015625 125.835938 45.195312 125.894531 C 45.316406 124.5 45.4375 123.105469 45.558594 121.652344 C 51.125 74.066406 94.160156 40.0625 141.675781 45.636719 C 179.382812 50.0625 208.554688 78.1875 216.183594 113.347656 C 198.992188 125.046875 163.644531 135.472656 126.90625 139.292969 C 83.628906 143.777344 38.296875 139.777344 17.351562 127.652344 Z M 17.351562 127.652344 " fill-opacity="1" fill-rule="evenodd"/><path fill="#85a389" d="M 240.089844 64.488281 C 248.925781 69.277344 263.210938 78.492188 268.902344 75.703125 C 273.257812 73.523438 277.675781 71.339844 282.09375 69.15625 C 296.199219 62.246094 301.402344 73.945312 289.359375 82.070312 L 278.28125 89.828125 C 273.078125 93.464844 273.804688 108.617188 274.167969 118.679688 C 274.347656 123.167969 272.652344 125.652344 270.414062 127.230469 C 269.265625 128.015625 268.71875 127.835938 268.355469 126.5 C 266.054688 117.652344 263.816406 108.800781 261.515625 99.949219 C 261.09375 98.191406 260.546875 97.464844 258.792969 98.3125 C 252.617188 101.34375 246.445312 104.316406 240.273438 107.347656 C 239.789062 107.589844 239.546875 107.832031 239.667969 108.375 C 240.453125 114.195312 239.667969 120.316406 235.730469 122.5 C 234.824219 122.984375 234.28125 123.046875 234.097656 121.832031 C 233.554688 118.195312 233.433594 113.40625 232.828125 110.074219 C 230.164062 110.800781 228.773438 108.558594 230.34375 106.496094 L 220.539062 101.285156 C 218.300781 100.070312 219.570312 98.921875 221.328125 98.375 C 225.078125 97.222656 230.40625 98.980469 234.644531 101.285156 C 235.308594 101.648438 235.671875 101.707031 236.277344 101.222656 L 253.34375 87.523438 C 254.738281 86.371094 254.375 85.949219 253.164062 84.976562 L 230.464844 66.429688 C 229.195312 65.398438 229.558594 64.730469 231.011719 64.125 C 233.917969 62.914062 236.398438 62.429688 240.089844 64.488281 " fill-opacity="1" fill-rule="evenodd"/></svg>
